<svg width="118" height="25" viewBox="0 0 118 25" fill="none" xmlns="http://www.w3.org/2000/svg">
<path fill-rule="evenodd" clip-rule="evenodd" d="M54.7017 4.4994H44.1797C41.3927 4.50736 38.7223 5.56331 36.7516 7.43665C34.7809 9.30999 33.67 11.8485 33.6617 14.4978V24.5H44.1797C46.9677 24.492 49.6392 23.4357 51.6106 21.5616C53.5821 19.6876 54.6933 17.1481 54.7017 14.4978V4.4994ZM4.2072 4.4994C4.20406 3.43962 3.7598 2.4241 2.97147 1.67472C2.18315 0.925337 1.11486 0.503022 0 0.500035V14.4978C0.00837026 17.1474 1.11908 19.6863 3.08967 21.5603C5.06025 23.4342 7.73068 24.491 10.518 24.5H21.0361V14.4978C21.0266 11.8482 19.9149 9.30966 17.9436 7.43642C15.9722 5.56319 13.3014 4.50735 10.5141 4.4994H4.2072ZM25.2433 24.4962V8.49876C25.2464 7.43898 25.6907 6.42346 26.479 5.67408C27.2673 4.9247 28.3356 4.50238 29.4505 4.4994V24.4962H25.2433ZM10.518 8.49876H4.2072V14.4978C4.21761 16.0858 4.88586 17.6059 6.06712 18.7288C7.24838 19.8517 8.84751 20.4869 10.518 20.4968H16.8328V14.4978C16.8224 12.9092 16.1536 11.3885 14.9715 10.2654C13.7894 9.14244 12.1892 8.50767 10.518 8.49876ZM44.1797 8.49876H50.4945V14.4978C50.484 16.0864 49.8153 17.6071 48.6332 18.7301C47.451 19.8531 45.8509 20.4879 44.1797 20.4968H37.8689V14.4978C37.8793 12.9098 38.5475 11.3897 39.7288 10.2668C40.91 9.14387 42.5092 8.50865 44.1797 8.49876Z" fill="#AFCA0B"/>
<path d="M68.8515 17.6895V18.4026H63.0447V10.5963H68.6649V11.3094H63.902V14.0826H68.149V14.7843H63.902V17.6858L68.8515 17.6895ZM67.8711 24.4998H66.8272L71.6179 18.4026L74.7376 14.3882L71.8164 10.5963H72.8126L75.2695 13.7581L77.7501 10.6001L82.5408 4.50296H83.4338L78.6908 10.6001L75.7775 14.3731L78.9131 18.4102H77.9049L75.2695 14.9956L72.6142 18.3913L67.8711 24.4998ZM85.1921 10.5963C86.0769 10.5469 86.9511 10.7999 87.6569 11.3094C87.9389 11.5607 88.1637 11.8643 88.3174 12.2014C88.4711 12.5385 88.5504 12.9021 88.5504 13.2695C88.5504 13.6369 88.4711 14.0004 88.3174 14.3376C88.1637 14.6747 87.9389 14.9783 87.6569 15.2296C86.9496 15.736 86.0762 15.9874 85.1921 15.9389H82.9536V18.4026H82.0843V10.5963H85.1921ZM85.1485 15.2145C85.8138 15.2574 86.4739 15.0772 87.0139 14.7051C87.2313 14.5301 87.4028 14.3095 87.5151 14.0607C87.6274 13.8119 87.6773 13.5417 87.6609 13.2714C87.6783 12.9977 87.629 12.7238 87.5167 12.4712C87.4045 12.2186 87.2324 11.994 87.0139 11.815C86.4727 11.4457 85.8132 11.267 85.1485 11.3094H82.9536V15.2145H85.1485ZM98.163 17.6895V18.4026H92.3523V10.5963H97.9884V11.3094H93.2255V14.0826H97.4764V14.7843H93.2215V17.6858L98.163 17.6895ZM107.76 18.4026L105.883 15.8936C105.665 15.9166 105.447 15.928 105.228 15.9276H103.021V18.4026H102.152V10.5963H105.228C106.112 10.5465 106.985 10.7995 107.689 11.3094C107.986 11.5497 108.22 11.8516 108.375 12.1917C108.53 12.5318 108.601 12.9012 108.582 13.2714C108.6 13.8238 108.429 14.3668 108.094 14.8183C107.744 15.2545 107.258 15.5731 106.704 15.7276L108.713 18.4026H107.76ZM105.204 15.2145C105.87 15.256 106.53 15.0744 107.07 14.7013C107.273 14.5129 107.435 14.2876 107.545 14.0388C107.656 13.79 107.713 13.5226 107.713 13.2525C107.713 12.9824 107.656 12.7151 107.545 12.4662C107.435 12.2174 107.273 11.9921 107.07 11.8037C106.528 11.435 105.869 11.2563 105.204 11.2981H103.021V15.2145H105.204ZM114.063 11.2981H111.174V10.585H117.818V11.2981H114.928V18.3913H114.063V11.2981Z" fill="#6F6F6E"/>
</svg>
