<svg width="29" height="30" viewBox="0 0 29 30" fill="none" xmlns="http://www.w3.org/2000/svg">
<path d="M7.78337 11.84C7.59855 11.2172 7.49998 10.5512 7.49998 9.86667C7.49998 6.0495 10.5865 2.96 14.4 2.96C18.2135 2.96 21.3 6.0495 21.3 9.86667C21.3 10.5512 21.2014 11.2172 21.0166 11.84H16.6425L18.158 9.10817C18.5523 8.39283 18.2997 7.4925 17.5851 7.09783C16.8704 6.70317 15.971 6.956 15.5767 7.67133L13.2602 11.8462H7.78953L7.78337 11.84ZM8.48569 1.97333H4.54283C2.3681 1.97333 0.599976 3.74317 0.599976 5.92V25.6533C0.599976 27.8302 2.3681 29.6 4.54283 29.6H24.2571C26.4319 29.6 28.2 27.8302 28.2 25.6533V5.92C28.2 3.74317 26.4319 1.97333 24.2571 1.97333H20.3143C18.6693 0.733833 16.6178 0 14.4 0C12.1821 0 10.1306 0.733833 8.48569 1.97333Z" fill="#41455C"/>
</svg>
