<svg width="23" height="22" viewBox="0 0 23 22" fill="none" xmlns="http://www.w3.org/2000/svg">
<path d="M21.625 11.0003C21.6282 13.0104 21.0303 14.9755 19.9083 16.6433C18.9828 18.0237 17.7315 19.1548 16.265 19.9365C14.7985 20.7182 13.1619 21.1265 11.5 21.1253C9.83812 21.1265 8.20154 20.7182 6.735 19.9365C5.26846 19.1548 4.01715 18.0237 3.09175 16.6433C2.21057 15.3298 1.64939 13.828 1.45319 12.2585C1.257 10.689 1.43124 9.09538 1.96197 7.60536C2.49269 6.11533 3.36512 4.77037 4.50933 3.67829C5.65353 2.58621 7.03768 1.77739 8.55082 1.31667C10.064 0.85595 11.664 0.756146 13.2226 1.02526C14.7813 1.29437 16.2552 1.92491 17.5263 2.86633C18.7973 3.80776 19.8302 5.03388 20.5419 6.4464C21.2537 7.85893 21.6246 9.41857 21.625 11.0003Z" stroke="#afca0b" stroke-width="1.2"/>
<path d="M4.63049 18.3535C5.41474 19.0873 6.31352 19.6926 7.29358 20.1435C8.46098 20.6806 9.71923 20.9872 10.9996 21.0498V21.1738C9.70141 21.1112 8.42547 20.8021 7.24182 20.2578C6.17658 19.7678 5.20862 19.0952 4.37463 18.2773L4.63049 18.3535ZM18.6227 18.2793C17.7892 19.096 16.8226 19.7683 15.7584 20.2578C14.5745 20.8023 13.2982 21.1113 11.9996 21.1738V21.0498C13.2804 20.9873 14.539 20.6808 15.7067 20.1435C16.6848 19.6935 17.5807 19.0883 18.3639 18.3564L18.6227 18.2793ZM7.62463 14.4687C6.84794 14.5567 6.1049 14.8459 5.47327 15.3164C5.01452 15.6581 4.63065 16.0839 4.33655 16.5664L4.2926 16.5156L4.15002 16.6367C4.46114 16.085 4.88418 15.5997 5.39807 15.2168C6.05135 14.73 6.82079 14.4314 7.62463 14.3427V14.4687ZM15.3746 14.3427C16.1788 14.4313 16.9487 14.7298 17.6022 15.2168C18.1154 15.5993 18.5365 16.0846 18.8473 16.6357L18.7076 16.5156L18.6627 16.5674C18.3688 16.085 17.9865 15.6581 17.528 15.3164C16.896 14.8455 16.1518 14.5567 15.3746 14.4687V14.3427ZM14.3746 14.3125V14.4375H8.62463V14.3125H14.3746ZM9.37268 8.12498C9.46506 8.51798 9.66363 8.88175 9.95374 9.17185C10.2437 9.46168 10.6069 9.65953 10.9996 9.75193V9.88083C10.5733 9.78626 10.1785 9.57337 9.86487 9.25974C9.65023 9.04505 9.48007 8.79021 9.36389 8.50974C9.31224 8.38502 9.27284 8.25614 9.24377 8.12498H9.37268ZM13.7565 8.12498C13.7274 8.25614 13.688 8.38503 13.6364 8.50974C13.5202 8.79018 13.35 9.04506 13.1354 9.25974C12.9207 9.47442 12.6659 9.64548 12.3854 9.76169C12.2606 9.81337 12.1309 9.85078 11.9996 9.87986V9.75193C12.3927 9.6596 12.7564 9.46191 13.0465 9.17185C13.3366 8.88174 13.5352 8.51799 13.6276 8.12498H13.7565ZM11.9996 5.36814C12.4263 5.4626 12.8215 5.67633 13.1354 5.99021C13.449 6.30392 13.662 6.69859 13.7565 7.12498H13.6276C13.5352 6.73196 13.3366 6.36821 13.0465 6.0781C12.7563 5.78798 12.3927 5.58935 11.9996 5.49705V5.36814ZM10.9996 5.49705C10.6069 5.58942 10.2437 5.78822 9.95374 6.0781C9.66363 6.3682 9.46506 6.73197 9.37268 7.12498H9.24377C9.33828 6.69858 9.55124 6.30392 9.86487 5.99021C10.1785 5.67658 10.5733 5.46369 10.9996 5.36912V5.49705Z" stroke="#afca0b"/>
</svg>
