<svg width="32" height="34" viewBox="0 0 32 34" fill="none" xmlns="http://www.w3.org/2000/svg">
<path d="M6.66665 0.333405C9.63332 0.333405 11.1167 3.9334 9.03332 6.0334C6.93332 8.11674 3.33332 6.6334 3.33332 3.66674C3.33332 2.78268 3.68451 1.93484 4.30963 1.30972C4.93475 0.684594 5.7826 0.333405 6.66665 0.333405ZM4.16665 8.66674H9.16665C10.0507 8.66674 10.8986 9.01793 11.5237 9.64305C12.1488 10.2682 12.5 11.116 12.5 12.0001V19.121C12.5 20.2508 11.5841 21.1667 10.4542 21.1667H9.99999V31.621C9.99999 32.7508 9.08407 33.6667 7.95423 33.6667H5.37908C4.24924 33.6667 3.33332 32.7508 3.33332 31.621V21.1667H2.87908C1.74924 21.1667 0.833321 20.2508 0.833321 19.121V12.0001C0.833321 11.116 1.18451 10.2682 1.80963 9.64305C2.43475 9.01793 3.2826 8.66674 4.16665 8.66674ZM26.6667 10.3334H27.5451C28.5566 10.3334 29.1339 9.17866 28.527 8.36947L25 3.66674L21.4729 8.36947C20.866 9.17866 21.4434 10.3334 22.4549 10.3334H23.3333V23.6667H22.4549C21.4434 23.6667 20.866 24.8215 21.4729 25.6307L25 30.3334L28.527 25.6307C29.1339 24.8215 28.5566 23.6667 27.5451 23.6667H26.6667M31.6667 0.333405H18.3333V3.66674H31.6667M31.6667 30.3334H18.3333V33.6667H31.6667" fill="#41455C"/>
</svg>
