<svg width="17" height="22" viewBox="0 0 17 22" fill="none" xmlns="http://www.w3.org/2000/svg">
<path d="M0.625 21.125V5.375H4.5625V4.8125C4.5625 3.719 4.94537 2.78937 5.71112 2.02362C6.47687 1.25787 7.4065 0.875 8.5 0.875C9.5935 0.875 10.5231 1.25787 11.2889 2.02362C12.0546 2.78937 12.4375 3.719 12.4375 4.8125V5.375H16.375V21.125H0.625ZM1.75 20H15.25V6.5H12.4375V9.875H11.3125V6.5H5.6875V9.875H4.5625V6.5H1.75V20ZM5.6875 5.375H11.3125V4.8125C11.3125 4.0205 11.0417 3.35375 10.5002 2.81225C9.95875 2.27075 9.292 2 8.5 2C7.708 2 7.04125 2.27075 6.49975 2.81225C5.95825 3.35375 5.6875 4.0205 5.6875 4.8125V5.375Z" fill="#6F6F6E"/>
</svg>
