<svg width="28" height="28" viewBox="0 0 28 28" fill="none" xmlns="http://www.w3.org/2000/svg">
<path d="M14 13.9999C12.1667 13.9999 10.5972 13.3472 9.29166 12.0416C7.9861 10.736 7.33332 9.1666 7.33332 7.33326C7.33332 5.49993 7.9861 3.93048 9.29166 2.62493C10.5972 1.31937 12.1667 0.666595 14 0.666595C15.8333 0.666595 17.4028 1.31937 18.7083 2.62493C20.0139 3.93048 20.6667 5.49993 20.6667 7.33326C20.6667 9.1666 20.0139 10.736 18.7083 12.0416C17.4028 13.3472 15.8333 13.9999 14 13.9999ZM0.666656 23.9999V22.6666C0.666656 21.7222 0.90999 20.8544 1.39666 20.0633C1.88332 19.2722 2.52888 18.6677 3.33332 18.2499C5.05554 17.3888 6.80555 16.7433 8.58332 16.3133C10.3611 15.8833 12.1667 15.6677 14 15.6666C15.8333 15.6655 17.6389 15.881 19.4167 16.3133C21.1944 16.7455 22.9444 17.391 24.6667 18.2499C25.4722 18.6666 26.1183 19.271 26.605 20.0633C27.0917 20.8555 27.3344 21.7233 27.3333 22.6666V23.9999C27.3333 24.9166 27.0072 25.7016 26.355 26.3549C25.7028 27.0083 24.9178 27.3344 24 27.3333H3.99999C3.08332 27.3333 2.29888 27.0072 1.64666 26.3549C0.994434 25.7027 0.667768 24.9177 0.666656 23.9999Z" fill="#41455C"/>
</svg>
